<?xml version="1.0" encoding="UTF-8" standalone="no"?>
<!-- Created with Inkscape (http://www.inkscape.org/) -->

<svg
   xmlns:dc="http://purl.org/dc/elements/1.1/"
   xmlns:cc="http://creativecommons.org/ns#"
   xmlns:rdf="http://www.w3.org/1999/02/22-rdf-syntax-ns#"
   xmlns:svg="http://www.w3.org/2000/svg"
   xmlns="http://www.w3.org/2000/svg"
   xmlns:sodipodi="http://sodipodi.sourceforge.net/DTD/sodipodi-0.dtd"
   xmlns:inkscape="http://www.inkscape.org/namespaces/inkscape"
   width="185.20834mm"
   height="238.125mm"
   viewBox="0 0 185.20834 238.125"
   version="1.1"
   id="svg8"
   inkscape:version="0.92.2 (30a58d1, 2017-08-07)"
   sodipodi:docname="RTC.svg">
  <defs
     id="defs2" />
  <sodipodi:namedview
     id="base"
     pagecolor="#ffffff"
     bordercolor="#666666"
     borderopacity="1.0"
     inkscape:pageopacity="0.0"
     inkscape:pageshadow="2"
     inkscape:zoom="0.49497475"
     inkscape:cx="4.5738466"
     inkscape:cy="365.24385"
     inkscape:document-units="mm"
     inkscape:current-layer="layer2"
     showgrid="false"
     fit-margin-top="0"
     fit-margin-left="0"
     fit-margin-right="0"
     fit-margin-bottom="0"
     inkscape:window-width="1440"
     inkscape:window-height="872"
     inkscape:window-x="0"
     inkscape:window-y="0"
     inkscape:window-maximized="1" />
  <metadata
     id="metadata5">
    <rdf:RDF>
      <cc:Work
         rdf:about="">
        <dc:format>image/svg+xml</dc:format>
        <dc:type
           rdf:resource="http://purl.org/dc/dcmitype/StillImage" />
        <dc:title></dc:title>
      </cc:Work>
    </rdf:RDF>
  </metadata>
  <g
     inkscape:groupmode="layer"
     id="layer2"
     inkscape:label="Layer 2"
     transform="translate(-11.47752,-45.831427)">
    <rect
       style="fill:#e6e6e6;fill-opacity:0.98431373;stroke:#ffffff;stroke-width:0.39023894;stroke-opacity:0.14136125"
       id="rect845"
       width="184.8181"
       height="237.73476"
       x="11.67264"
       y="46.026546" />
  </g>
  <g
     inkscape:label="Layer 1"
     inkscape:groupmode="layer"
     id="layer1"
     transform="translate(-11.47752,-45.831427)">
    <g
       aria-label="RTC"
       transform="matrix(1.1967372,0,0,1.1569437,13.728125,-4.3654035)"
       style="font-style:normal;font-weight:normal;font-size:49.46927643px;line-height:1.25;font-family:sans-serif;letter-spacing:0px;word-spacing:0px;fill:#000000;fill-opacity:1;stroke:#ececec;stroke-width:1.23671508;stroke-miterlimit:4;stroke-dasharray:none;stroke-opacity:1"
       id="text836">
      <path
         d="m 57.805102,123.14674 q 2.930797,0.99196 5.681237,4.23838 2.79553,3.24642 5.59106,8.92766 l 9.243284,18.39639 h -9.784354 l -8.612035,-17.26916 q -3.3366,-6.76338 -6.492844,-8.97275 -3.111154,-2.20937 -8.521856,-2.20937 h -9.919622 v 28.45128 H 25.881956 V 87.391008 h 20.56067 q 11.542832,0 17.22407,4.824544 5.681238,4.824543 5.681238,14.563808 0,6.35758 -2.975886,10.55087 -2.930798,4.19329 -8.566946,5.81651 z M 34.989972,94.875814 v 23.897266 h 11.452654 q 6.583022,0 9.919622,-3.02097 3.381689,-3.06607 3.381689,-8.97275 0,-5.90668 -3.381689,-8.882571 -3.3366,-3.020975 -9.919622,-3.020975 z"
         style="font-size:92.342659px;fill:#ff0000;stroke:#ececec;stroke-width:1.23671508;stroke-miterlimit:4;stroke-dasharray:none;stroke-opacity:1"
         id="path838"
         inkscape:connector-curvature="0" />
      <path
         d="m 41.815388,103.33048 h 56.94765 v 7.66517 h -23.89727 v 59.653 h -9.15311 v -59.653 h -23.89727 z"
         style="font-size:92.342659px;fill:#ffff00;stroke:#ececec;stroke-width:1.23671508;stroke-miterlimit:4;stroke-dasharray:none;stroke-opacity:1"
         id="path840"
         inkscape:connector-curvature="0" />
      <path
         d="m 130.01269,96.029818 v 9.603992 q -4.5991,-4.28347 -9.82945,-6.402659 -5.18525,-2.119192 -11.04685,-2.119192 -11.542829,0 -17.674959,7.079001 -6.132132,7.03391 -6.132132,20.38031 0,13.30131 6.132132,20.38032 6.13213,7.03391 17.674959,7.03391 5.8616,0 11.04685,-2.11919 5.23035,-2.1192 9.82945,-6.40267 v 9.51382 q -4.77946,3.24642 -10.14507,4.86963 -5.32052,1.62321 -11.2723,1.62321 -15.285229,0 -24.077621,-9.33346 -8.7924,-9.37855 -8.7924,-25.56557 0,-16.23211 8.7924,-25.565565 8.792392,-9.378552 24.077621,-9.378552 6.04195,0 11.36248,1.623211 5.36561,1.578122 10.05489,4.779454 z"
         style="font-size:92.342659px;fill:#008000;stroke:#ececec;stroke-width:1.23671508;stroke-miterlimit:4;stroke-dasharray:none;stroke-opacity:1"
         id="path842"
         inkscape:connector-curvature="0" />
    </g>
    <g
       aria-label="Reliable, talented
and comfortable"
       transform="scale(1.0027828,0.99722493)"
       style="font-style:normal;font-weight:normal;font-size:18.69501305px;line-height:1.25;font-family:sans-serif;letter-spacing:0px;word-spacing:0px;fill:#000000;fill-opacity:1;stroke:none;stroke-width:0.46737528"
       id="text855">
      <g
         id="g943"
         transform="matrix(0.99206477,-0.1264286,0.12503104,0.99206477,-25.428017,8.4931963)">
        <path
           id="path869"
           style="fill:#d40000;stroke-width:0.46737528"
           d="m 37.872733,212.2097 q 0.299121,0.3739 0.747801,0.99083 0.467376,0.59825 0.953447,1.34605 0.48607,0.7291 0.953446,1.53299 0.486071,0.80388 0.822581,1.55169 h -1.981673 q -0.3739,-0.71041 -0.822581,-1.43952 -0.429985,-0.72911 -0.878666,-1.38343 -0.448681,-0.67302 -0.897362,-1.25257 -0.429985,-0.57955 -0.785191,-1.00953 -0.243035,0.0187 -0.504765,0.0187 -0.243036,0 -0.504766,0 h -1.626468 v 5.06636 h -1.813417 v -12.76871 q 0.766496,-0.18695 1.701247,-0.24303 0.953447,-0.0748 1.738638,-0.0748 2.729474,0 4.150296,1.02822 1.439517,1.02823 1.439517,3.06599 0,1.28995 -0.691716,2.20601 -0.673021,0.91606 -2.000368,1.36474 z m -2.748169,-6.07589 q -1.159092,0 -1.776028,0.0561 v 4.8794 h 1.289957 q 0.934752,0 1.682553,-0.0935 0.747801,-0.0935 1.252567,-0.35521 0.52346,-0.26173 0.803886,-0.72911 0.280425,-0.48607 0.280425,-1.27126 0,-0.7291 -0.280425,-1.21517 -0.280426,-0.48608 -0.766496,-0.7665 -0.467376,-0.28043 -1.121702,-0.3926 -0.635631,-0.11217 -1.364737,-0.11217 z"
           inkscape:connector-curvature="0" />
        <path
           id="path871"
           style="fill:#d40000;stroke-width:0.46737528"
           d="m 42.638213,212.78924 q 0,-1.28995 0.373901,-2.2434 0.3739,-0.97214 0.990836,-1.60777 0.616936,-0.63563 1.420822,-0.95345 0.803887,-0.31781 1.645163,-0.31781 1.962978,0 3.009899,1.23387 1.046922,1.21517 1.046922,3.72031 0,0.11217 0,0.29912 0,0.16825 -0.0187,0.31781 h -6.65543 q 0.11217,1.5143 0.878666,2.29949 0.766496,0.78519 2.392964,0.78519 0.916056,0 1.532992,-0.14956 0.635631,-0.16825 0.953447,-0.31781 l 0.243035,1.45821 q -0.317816,0.16826 -1.121702,0.35521 -0.785191,0.18695 -1.794722,0.18695 -1.271262,0 -2.206014,-0.3739 -0.916056,-0.3926 -1.514297,-1.06562 -0.598241,-0.67302 -0.897361,-1.58908 -0.280426,-0.93475 -0.280426,-2.03776 z m 6.674125,-0.95344 q 0.0187,-1.17779 -0.598241,-1.92559 -0.598241,-0.7665 -1.663857,-0.7665 -0.598241,0 -1.065617,0.24304 -0.448681,0.22434 -0.766496,0.59824 -0.317815,0.3739 -0.504766,0.85997 -0.168255,0.48607 -0.22434,0.99084 z"
           inkscape:connector-curvature="0" />
        <path
           id="path873"
           style="fill:#d40000;stroke-width:0.46737528"
           d="m 56.539721,217.81821 q -1.607773,-0.0374 -2.280794,-0.69172 -0.673021,-0.65433 -0.673021,-2.03776 v -11.6657 l 1.738638,-0.29912 v 11.6844 q 0,0.42998 0.07478,0.71041 0.07478,0.28042 0.243035,0.44868 0.168256,0.16825 0.448681,0.26173 0.280425,0.0748 0.691716,0.13086 z"
           inkscape:connector-curvature="0" />
        <path
           id="path875"
           style="fill:#d40000;stroke-width:0.46737528"
           d="m 60.473855,217.63126 h -1.738637 v -9.72142 h 1.738637 z m -0.878666,-11.47875 q -0.467376,0 -0.803886,-0.29912 -0.317816,-0.31782 -0.317816,-0.84128 0,-0.52346 0.317816,-0.82258 0.33651,-0.31781 0.803886,-0.31781 0.467376,0 0.785191,0.31781 0.336511,0.29912 0.336511,0.82258 0,0.52346 -0.336511,0.84128 -0.317815,0.29912 -0.785191,0.29912 z"
           inkscape:connector-curvature="0" />
        <path
           id="path877"
           style="fill:#d40000;stroke-width:0.46737528"
           d="m 66.772325,216.37869 q 0.616936,0 1.084312,-0.0187 0.48607,-0.0374 0.803886,-0.11217 v -2.89773 q -0.186951,-0.0935 -0.616936,-0.14956 -0.411291,-0.0748 -1.009532,-0.0748 -0.392595,0 -0.841276,0.0561 -0.429986,0.0561 -0.803886,0.24303 -0.355206,0.16826 -0.598241,0.48608 -0.243036,0.29912 -0.243036,0.80388 0,0.93475 0.598241,1.30865 0.598241,0.35521 1.626468,0.35521 z m -0.14956,-8.71188 q 1.046921,0 1.757332,0.28042 0.729106,0.26173 1.159092,0.7665 0.448681,0.48607 0.635631,1.17778 0.18695,0.67303 0.18695,1.49561 v 6.07588 q -0.22434,0.0374 -0.635631,0.11217 -0.392595,0.0561 -0.897361,0.11217 -0.504766,0.0561 -1.103007,0.0935 -0.579546,0.0561 -1.159091,0.0561 -0.822582,0 -1.514298,-0.16825 -0.691716,-0.16826 -1.196482,-0.52346 -0.504765,-0.37391 -0.785191,-0.97215 -0.280425,-0.59824 -0.280425,-1.43951 0,-0.80389 0.317815,-1.38344 0.336511,-0.57954 0.897362,-0.93475 0.560851,-0.3552 1.308652,-0.52346 0.747801,-0.16825 1.570382,-0.16825 0.26173,0 0.542156,0.0374 0.280425,0.0187 0.523461,0.0748 0.26173,0.0374 0.44868,0.0748 0.186951,0.0374 0.261731,0.0561 v -0.48607 q 0,-0.42998 -0.09347,-0.84127 -0.09348,-0.42999 -0.336511,-0.74781 -0.243035,-0.33651 -0.673021,-0.52346 -0.411291,-0.20564 -1.084312,-0.20564 -0.859971,0 -1.514297,0.13086 -0.635631,0.11217 -0.953446,0.24304 L 63.79982,208.0969 q 0.336511,-0.14956 1.121702,-0.28042 0.785191,-0.14956 1.701248,-0.14956 z"
           inkscape:connector-curvature="0" />
        <path
           id="path879"
           style="fill:#d40000;stroke-width:0.46737528"
           d="m 74.969806,208.33983 q 0.317815,-0.20565 0.953446,-0.42999 0.654326,-0.22434 1.495603,-0.22434 1.046921,0 1.850807,0.3739 0.822582,0.3739 1.383433,1.04692 0.56085,0.67302 0.841276,1.60778 0.29912,0.93475 0.29912,2.05645 0,1.17779 -0.355205,2.13123 -0.336511,0.93475 -0.972142,1.58908 -0.635631,0.65433 -1.532992,1.00953 -0.897361,0.35521 -2.019063,0.35521 -1.215177,0 -2.149928,-0.16826 -0.934752,-0.16825 -1.532993,-0.33651 v -13.9278 l 1.738638,-0.29912 z m 0,7.77713 q 0.26173,0.0748 0.729106,0.14956 0.486071,0.0561 1.196482,0.0561 1.402127,0 2.243403,-0.91605 0.841277,-0.93475 0.841277,-2.636 0,-0.7478 -0.149561,-1.40213 -0.14956,-0.65432 -0.48607,-1.1217 -0.336511,-0.48607 -0.878667,-0.7478 -0.523461,-0.28043 -1.271262,-0.28043 -0.710411,0 -1.308652,0.24304 -0.598241,0.24303 -0.916056,0.50476 z"
           inkscape:connector-curvature="0" />
        <path
           id="path881"
           style="fill:#d40000;stroke-width:0.46737528"
           d="m 87.174738,217.81821 q -1.607772,-0.0374 -2.280793,-0.69172 -0.673021,-0.65433 -0.673021,-2.03776 v -11.6657 l 1.738637,-0.29912 v 11.6844 q 0,0.42998 0.07478,0.71041 0.07478,0.28042 0.243036,0.44868 0.168255,0.16825 0.44868,0.26173 0.280426,0.0748 0.691716,0.13086 z"
           inkscape:connector-curvature="0" />
        <path
           id="path883"
           style="fill:#d40000;stroke-width:0.46737528"
           d="m 88.828077,212.78924 q 0,-1.28995 0.373901,-2.2434 0.3739,-0.97214 0.990836,-1.60777 0.616936,-0.63563 1.420822,-0.95345 0.803887,-0.31781 1.645163,-0.31781 1.962978,0 3.0099,1.23387 1.046921,1.21517 1.046921,3.72031 0,0.11217 0,0.29912 0,0.16825 -0.01869,0.31781 H 90.6415 q 0.11217,1.5143 0.878666,2.29949 0.766496,0.78519 2.392964,0.78519 0.916056,0 1.532992,-0.14956 0.635631,-0.16825 0.953447,-0.31781 l 0.243035,1.45821 q -0.317815,0.16826 -1.121702,0.35521 -0.785191,0.18695 -1.794722,0.18695 -1.271262,0 -2.206014,-0.3739 -0.916056,-0.3926 -1.514297,-1.06562 -0.598241,-0.67302 -0.897361,-1.58908 -0.280426,-0.93475 -0.280426,-2.03776 z m 6.674125,-0.95344 q 0.0187,-1.17779 -0.598241,-1.92559 -0.59824,-0.7665 -1.663857,-0.7665 -0.598241,0 -1.065617,0.24304 -0.44868,0.22434 -0.766496,0.59824 -0.317815,0.3739 -0.504766,0.85997 -0.168255,0.48607 -0.22434,0.99084 z"
           inkscape:connector-curvature="0" />
        <path
           id="path885"
           style="fill:#d40000;stroke-width:0.46737528"
           d="m 101.64527,215.50002 q 0.0187,0.14956 0.0187,0.29912 0,0.13087 0,0.28043 0,1.17779 -0.35521,2.31818 -0.33651,1.15909 -0.93475,2.20602 l -1.34604,-0.42999 q 0.467376,-0.95345 0.616936,-1.94428 0.14956,-0.97214 0.14956,-1.83212 0,-0.24303 -0.01869,-0.46737 0,-0.22434 -0.0187,-0.42999 z"
           inkscape:connector-curvature="0" />
      </g>
      <g
         id="g953"
         transform="matrix(0.99146107,-0.13112976,0.12968023,0.99146107,-25.694685,20.32266)">
        <path
           id="path887"
           style="fill:#d4aa00;stroke-width:0.46737528"
           d="m 110.34898,207.90984 h 3.68292 v 1.45821 h -3.68292 v 4.48681 q 0,0.72911 0.11217,1.21518 0.11217,0.46737 0.33651,0.7478 0.22434,0.26173 0.56085,0.3739 0.33651,0.11217 0.78519,0.11217 0.78519,0 1.25257,-0.16826 0.48607,-0.18695 0.67302,-0.26173 l 0.33651,1.43952 q -0.26173,0.13087 -0.91606,0.31782 -0.65432,0.20564 -1.4956,0.20564 -0.99084,0 -1.64516,-0.24303 -0.63563,-0.26173 -1.02823,-0.7665 -0.3926,-0.50477 -0.56085,-1.23387 -0.14956,-0.7478 -0.14956,-1.71994 v -8.6745 l 1.73864,-0.29912 z"
           inkscape:connector-curvature="0" />
        <path
           id="path889"
           style="fill:#d4aa00;stroke-width:0.46737528"
           d="m 119.53466,216.37869 q 0.61694,0 1.08431,-0.0187 0.48607,-0.0374 0.80389,-0.11217 v -2.89773 q -0.18695,-0.0935 -0.61694,-0.14956 -0.41129,-0.0748 -1.00953,-0.0748 -0.39259,0 -0.84127,0.0561 -0.42999,0.0561 -0.80389,0.24303 -0.35521,0.16826 -0.59824,0.48608 -0.24304,0.29912 -0.24304,0.80388 0,0.93475 0.59824,1.30865 0.59825,0.35521 1.62647,0.35521 z m -0.14956,-8.71188 q 1.04692,0 1.75733,0.28042 0.72911,0.26173 1.1591,0.7665 0.44868,0.48607 0.63563,1.17778 0.18695,0.67303 0.18695,1.49561 v 6.07588 q -0.22434,0.0374 -0.63563,0.11217 -0.3926,0.0561 -0.89737,0.11217 -0.50476,0.0561 -1.103,0.0935 -0.57955,0.0561 -1.15909,0.0561 -0.82258,0 -1.5143,-0.16825 -0.69172,-0.16826 -1.19648,-0.52346 -0.50477,-0.37391 -0.78519,-0.97215 -0.28043,-0.59824 -0.28043,-1.43951 0,-0.80389 0.31782,-1.38344 0.33651,-0.57954 0.89736,-0.93475 0.56085,-0.3552 1.30865,-0.52346 0.7478,-0.16825 1.57038,-0.16825 0.26173,0 0.54216,0.0374 0.28042,0.0187 0.52346,0.0748 0.26173,0.0374 0.44868,0.0748 0.18695,0.0374 0.26173,0.0561 v -0.48607 q 0,-0.42998 -0.0935,-0.84127 -0.0935,-0.42999 -0.33651,-0.74781 -0.24303,-0.33651 -0.67302,-0.52346 -0.41129,-0.20564 -1.08431,-0.20564 -0.85997,0 -1.5143,0.13086 -0.63563,0.11217 -0.95344,0.24304 l -0.20565,-1.43952 q 0.33651,-0.14956 1.1217,-0.28042 0.78519,-0.14956 1.70125,-0.14956 z"
           inkscape:connector-curvature="0" />
        <path
           id="path891"
           style="fill:#d4aa00;stroke-width:0.46737528"
           d="m 128.90993,217.81821 q -1.60777,-0.0374 -2.28079,-0.69172 -0.67303,-0.65433 -0.67303,-2.03776 v -11.6657 l 1.73864,-0.29912 v 11.6844 q 0,0.42998 0.0748,0.71041 0.0748,0.28042 0.24304,0.44868 0.16825,0.16825 0.44868,0.26173 0.28042,0.0748 0.69171,0.13086 z"
           inkscape:connector-curvature="0" />
        <path
           id="path893"
           style="fill:#d4aa00;stroke-width:0.46737528"
           d="m 130.56327,212.78924 q 0,-1.28995 0.3739,-2.2434 0.3739,-0.97214 0.99084,-1.60777 0.61694,-0.63563 1.42082,-0.95345 0.80389,-0.31781 1.64516,-0.31781 1.96298,0 3.0099,1.23387 1.04693,1.21517 1.04693,3.72031 0,0.11217 0,0.29912 0,0.16825 -0.0187,0.31781 h -6.65543 q 0.11217,1.5143 0.87867,2.29949 0.76649,0.78519 2.39296,0.78519 0.91606,0 1.53299,-0.14956 0.63563,-0.16825 0.95345,-0.31781 l 0.24303,1.45821 q -0.31781,0.16826 -1.1217,0.35521 -0.78519,0.18695 -1.79472,0.18695 -1.27126,0 -2.20601,-0.3739 -0.91606,-0.3926 -1.5143,-1.06562 -0.59824,-0.67302 -0.89736,-1.58908 -0.28043,-0.93475 -0.28043,-2.03776 z m 6.67413,-0.95344 q 0.0187,-1.17779 -0.59824,-1.92559 -0.59824,-0.7665 -1.66386,-0.7665 -0.59824,0 -1.06562,0.24304 -0.44868,0.22434 -0.76649,0.59824 -0.31782,0.3739 -0.50477,0.85997 -0.16825,0.48607 -0.22434,0.99084 z"
           inkscape:connector-curvature="0" />
        <path
           id="path895"
           style="fill:#d4aa00;stroke-width:0.46737528"
           d="m 141.54835,208.19027 q 0.59824,-0.14956 1.58908,-0.31782 0.99084,-0.16825 2.28079,-0.16825 1.1591,0 1.92559,0.33651 0.7665,0.31781 1.21518,0.91605 0.46737,0.57955 0.65432,1.40213 0.18695,0.82258 0.18695,1.81342 v 5.45895 h -1.73863 v -5.08505 q 0,-0.89736 -0.13087,-1.53299 -0.11217,-0.63563 -0.39259,-1.02823 -0.28043,-0.3926 -0.7478,-0.56085 -0.46738,-0.18695 -1.1591,-0.18695 -0.28042,0 -0.57954,0.0187 -0.29912,0.0187 -0.57955,0.0561 -0.26173,0.0187 -0.48607,0.0561 -0.20564,0.0374 -0.29912,0.0561 v 8.20712 h -1.73864 z"
           inkscape:connector-curvature="0" />
        <path
           id="path897"
           style="fill:#d4aa00;stroke-width:0.46737528"
           d="m 153.90986,207.90984 h 3.68292 v 1.45821 h -3.68292 v 4.48681 q 0,0.72911 0.11217,1.21518 0.11217,0.46737 0.33651,0.7478 0.22434,0.26173 0.56085,0.3739 0.33651,0.11217 0.78519,0.11217 0.78519,0 1.25257,-0.16826 0.48607,-0.18695 0.67302,-0.26173 l 0.33651,1.43952 q -0.26173,0.13087 -0.91606,0.31782 -0.65432,0.20564 -1.4956,0.20564 -0.99084,0 -1.64516,-0.24303 -0.63563,-0.26173 -1.02823,-0.7665 -0.39259,-0.50477 -0.56085,-1.23387 -0.14956,-0.7478 -0.14956,-1.71994 v -8.6745 l 1.73864,-0.29912 z"
           inkscape:connector-curvature="0" />
        <path
           id="path899"
           style="fill:#d4aa00;stroke-width:0.46737528"
           d="m 159.08048,212.78924 q 0,-1.28995 0.3739,-2.2434 0.37391,-0.97214 0.99084,-1.60777 0.61694,-0.63563 1.42082,-0.95345 0.80389,-0.31781 1.64517,-0.31781 1.96297,0 3.0099,1.23387 1.04692,1.21517 1.04692,3.72031 0,0.11217 0,0.29912 0,0.16825 -0.0187,0.31781 h -6.65543 q 0.11217,1.5143 0.87867,2.29949 0.76649,0.78519 2.39296,0.78519 0.91606,0 1.53299,-0.14956 0.63564,-0.16825 0.95345,-0.31781 l 0.24304,1.45821 q -0.31782,0.16826 -1.12171,0.35521 -0.78519,0.18695 -1.79472,0.18695 -1.27126,0 -2.20601,-0.3739 -0.91606,-0.3926 -1.5143,-1.06562 -0.59824,-0.67302 -0.89736,-1.58908 -0.28043,-0.93475 -0.28043,-2.03776 z m 6.67413,-0.95344 q 0.0187,-1.17779 -0.59824,-1.92559 -0.59824,-0.7665 -1.66386,-0.7665 -0.59824,0 -1.06562,0.24304 -0.44868,0.22434 -0.76649,0.59824 -0.31782,0.3739 -0.50477,0.85997 -0.16825,0.48607 -0.22434,0.99084 z"
           inkscape:connector-curvature="0" />
        <path
           id="path901"
           style="fill:#d4aa00;stroke-width:0.46737528"
           d="m 176.3471,209.96629 q -0.31781,-0.26173 -0.91605,-0.50476 -0.59825,-0.24304 -1.30866,-0.24304 -0.7478,0 -1.28995,0.28043 -0.52346,0.26173 -0.85997,0.7478 -0.33652,0.46738 -0.48608,1.1217 -0.14956,0.65433 -0.14956,1.40213 0,1.70125 0.84128,2.636 0.84128,0.91605 2.2434,0.91605 0.71041,0 1.17779,-0.0561 0.48607,-0.0748 0.7478,-0.14956 z m 0,-6.54326 1.73864,-0.29912 v 14.22692 q -0.59824,0.16826 -1.53299,0.33651 -0.93475,0.16826 -2.14993,0.16826 -1.1217,0 -2.01906,-0.35521 -0.89737,-0.3552 -1.533,-1.00953 -0.63563,-0.65433 -0.99083,-1.58908 -0.33651,-0.95344 -0.33651,-2.13123 0,-1.1217 0.28042,-2.05645 0.29912,-0.93476 0.85997,-1.60778 0.56085,-0.67302 1.36474,-1.04692 0.82258,-0.3739 1.8695,-0.3739 0.84128,0 1.47691,0.22434 0.65433,0.22434 0.97214,0.42999 z"
           inkscape:connector-curvature="0" />
      </g>
      <g
         id="g969"
         transform="matrix(0.99352758,-0.11422426,0.11296159,0.99352758,-26.916377,13.214541)">
        <path
           id="path903"
           style="font-style:normal;font-variant:normal;font-weight:normal;font-stretch:normal;font-size:18.69502831px;font-family:Ubuntu;-inkscape-font-specification:'Ubuntu, Normal';font-variant-ligatures:normal;font-variant-caps:normal;font-variant-numeric:normal;font-feature-settings:normal;text-align:center;writing-mode:lr-tb;text-anchor:middle;fill:#5aa02c;stroke-width:0.46737528"
           d="m 39.186205,240.63972 q 0.616936,0 1.084312,-0.0187 0.48607,-0.0374 0.803886,-0.11217 v -2.89773 q -0.18695,-0.0935 -0.616936,-0.14956 -0.411291,-0.0748 -1.009532,-0.0748 -0.392595,0 -0.841276,0.0561 -0.429986,0.0561 -0.803886,0.24303 -0.355206,0.16826 -0.598241,0.48607 -0.243035,0.29913 -0.243035,0.80389 0,0.93475 0.59824,1.30865 0.598241,0.35521 1.626468,0.35521 z m -0.14956,-8.71188 q 1.046921,0 1.757332,0.28042 0.729106,0.26173 1.159092,0.7665 0.448681,0.48607 0.635631,1.17778 0.18695,0.67302 0.18695,1.49561 v 6.07588 q -0.22434,0.0374 -0.635631,0.11217 -0.392595,0.0561 -0.897361,0.11217 -0.504766,0.0561 -1.103007,0.0935 -0.579546,0.0561 -1.159091,0.0561 -0.822582,0 -1.514298,-0.16825 -0.691716,-0.16826 -1.196481,-0.52347 -0.504766,-0.3739 -0.785192,-0.97214 -0.280425,-0.59824 -0.280425,-1.43951 0,-0.80389 0.317815,-1.38344 0.336511,-0.57954 0.897362,-0.93475 0.560851,-0.3552 1.308652,-0.52346 0.747801,-0.16825 1.570382,-0.16825 0.26173,0 0.542156,0.0374 0.280425,0.0187 0.523461,0.0748 0.26173,0.0374 0.44868,0.0748 0.186951,0.0374 0.261731,0.0561 v -0.48607 q 0,-0.42998 -0.09347,-0.84128 -0.09347,-0.42998 -0.336511,-0.7478 -0.243035,-0.33651 -0.673021,-0.52346 -0.411291,-0.20564 -1.084312,-0.20564 -0.859971,0 -1.514297,0.13086 -0.635631,0.11217 -0.953446,0.24304 L 36.2137,232.35793 q 0.336511,-0.14956 1.121702,-0.28042 0.785191,-0.14956 1.701248,-0.14956 z"
           inkscape:connector-curvature="0" />
        <path
           id="path905"
           style="font-style:normal;font-variant:normal;font-weight:normal;font-stretch:normal;font-size:18.69502831px;font-family:Ubuntu;-inkscape-font-specification:'Ubuntu, Normal';font-variant-ligatures:normal;font-variant-caps:normal;font-variant-numeric:normal;font-feature-settings:normal;text-align:center;writing-mode:lr-tb;text-anchor:middle;fill:#5aa02c;stroke-width:0.46737528"
           d="m 45.645045,232.4513 q 0.598241,-0.14956 1.589078,-0.31782 0.990836,-0.16825 2.280793,-0.16825 1.159092,0 1.925588,0.33651 0.766496,0.31781 1.215177,0.91605 0.467376,0.57955 0.654326,1.40213 0.18695,0.82258 0.18695,1.81342 v 5.45895 H 51.75832 v -5.08505 q 0,-0.89736 -0.130865,-1.53299 -0.112171,-0.63564 -0.392596,-1.02823 -0.280425,-0.3926 -0.747801,-0.56085 -0.467376,-0.18695 -1.159092,-0.18695 -0.280425,0 -0.579546,0.0187 -0.29912,0.0187 -0.579546,0.0561 -0.26173,0.0187 -0.48607,0.0561 -0.205646,0.0374 -0.299121,0.0561 v 8.20712 h -1.738638 z"
           inkscape:connector-curvature="0" />
        <path
           id="path907"
           style="font-style:normal;font-variant:normal;font-weight:normal;font-stretch:normal;font-size:18.69502831px;font-family:Ubuntu;-inkscape-font-specification:'Ubuntu, Normal';font-variant-ligatures:normal;font-variant-caps:normal;font-variant-numeric:normal;font-feature-settings:normal;text-align:center;writing-mode:lr-tb;text-anchor:middle;fill:#5aa02c;stroke-width:0.46737528"
           d="m 62.661611,234.22732 q -0.317816,-0.26173 -0.916056,-0.50476 -0.598241,-0.24304 -1.308652,-0.24304 -0.747802,0 -1.289957,0.28043 -0.523461,0.26173 -0.859972,0.7478 -0.33651,0.46738 -0.48607,1.1217 -0.149561,0.65433 -0.149561,1.40213 0,1.70125 0.841277,2.636 0.841276,0.91605 2.243403,0.91605 0.710411,0 1.177787,-0.0561 0.48607,-0.0748 0.747801,-0.14956 z m 0,-6.54326 1.738638,-0.29912 v 14.22692 q -0.598241,0.16826 -1.532993,0.33651 -0.934751,0.16826 -2.149928,0.16826 -1.121702,0 -2.019063,-0.35521 -0.897361,-0.35521 -1.532992,-1.00953 -0.635631,-0.65433 -0.990837,-1.58908 -0.33651,-0.95345 -0.33651,-2.13123 0,-1.1217 0.280425,-2.05645 0.29912,-0.93476 0.859971,-1.60778 0.560851,-0.67302 1.364737,-1.04692 0.822582,-0.3739 1.869503,-0.3739 0.841276,0 1.476907,0.22434 0.654326,0.22434 0.972142,0.42999 z"
           inkscape:connector-curvature="0" />
        <path
           id="path909"
           style="font-style:normal;font-variant:normal;font-weight:normal;font-stretch:normal;font-size:18.69502831px;font-family:Ubuntu;-inkscape-font-specification:'Ubuntu, Normal';font-variant-ligatures:normal;font-variant-caps:normal;font-variant-numeric:normal;font-feature-settings:normal;text-align:center;writing-mode:lr-tb;text-anchor:middle;fill:#5aa02c;stroke-width:0.46737528"
           d="m 75.940922,242.11663 q -1.177787,0 -2.075148,-0.3739 -0.878667,-0.37391 -1.495603,-1.04693 -0.598241,-0.67302 -0.897361,-1.58907 -0.299121,-0.93476 -0.299121,-2.05646 0,-1.1217 0.317816,-2.05645 0.33651,-0.93475 0.934751,-1.60777 0.598241,-0.69172 1.458213,-1.06562 0.878666,-0.39259 1.944283,-0.39259 0.654326,0 1.308652,0.11217 0.654326,0.11217 1.252566,0.3552 l -0.392595,1.47691 q -0.392596,-0.18695 -0.916057,-0.29912 -0.504765,-0.11217 -1.084311,-0.11217 -1.458212,0 -2.243404,0.91605 -0.766496,0.91606 -0.766496,2.67339 0,0.78519 0.168255,1.43952 0.186951,0.65433 0.560851,1.1217 0.392596,0.46738 0.990837,0.72911 0.598241,0.24303 1.458212,0.24303 0.691716,0 1.252567,-0.13086 0.560851,-0.13087 0.878666,-0.28043 l 0.243036,1.45822 q -0.149561,0.0935 -0.429986,0.18695 -0.280425,0.0748 -0.635631,0.13086 -0.355206,0.0748 -0.766496,0.11217 -0.392596,0.0561 -0.766496,0.0561 z"
           inkscape:connector-curvature="0" />
        <path
           id="path911"
           style="font-style:normal;font-variant:normal;font-weight:normal;font-stretch:normal;font-size:18.69502831px;font-family:Ubuntu;-inkscape-font-specification:'Ubuntu, Normal';font-variant-ligatures:normal;font-variant-caps:normal;font-variant-numeric:normal;font-feature-settings:normal;text-align:center;writing-mode:lr-tb;text-anchor:middle;fill:#5aa02c;stroke-width:0.46737528"
           d="m 88.731537,237.03158 q 0,1.15909 -0.336511,2.09384 -0.33651,0.93475 -0.953446,1.60777 -0.598241,0.67302 -1.439518,1.04693 -0.841276,0.3552 -1.832112,0.3552 -0.990837,0 -1.832113,-0.3552 -0.841276,-0.37391 -1.458212,-1.04693 -0.598241,-0.67302 -0.934752,-1.60777 -0.33651,-0.93475 -0.33651,-2.09384 0,-1.1404 0.33651,-2.07515 0.336511,-0.95345 0.934752,-1.62647 0.616936,-0.67302 1.458212,-1.02822 0.841276,-0.3739 1.832113,-0.3739 0.990836,0 1.832112,0.3739 0.841277,0.3552 1.439518,1.02822 0.616936,0.67302 0.953446,1.62647 0.336511,0.93475 0.336511,2.07515 z m -1.813418,0 q 0,-1.64516 -0.747801,-2.59861 -0.729106,-0.97214 -2.000368,-0.97214 -1.271262,0 -2.019063,0.97214 -0.729106,0.95345 -0.729106,2.59861 0,1.64516 0.729106,2.6173 0.747801,0.95345 2.019063,0.95345 1.271262,0 2.000368,-0.95345 0.747801,-0.97214 0.747801,-2.6173 z"
           inkscape:connector-curvature="0" />
        <path
           id="path913"
           style="font-style:normal;font-variant:normal;font-weight:normal;font-stretch:normal;font-size:18.69502831px;font-family:Ubuntu;-inkscape-font-specification:'Ubuntu, Normal';font-variant-ligatures:normal;font-variant-caps:normal;font-variant-numeric:normal;font-feature-settings:normal;text-align:center;writing-mode:lr-tb;text-anchor:middle;fill:#5aa02c;stroke-width:0.46737528"
           d="m 91.177664,232.4513 q 0.598241,-0.14956 1.570382,-0.31782 0.990837,-0.16825 2.280794,-0.16825 0.934751,0 1.570382,0.26173 0.635631,0.24303 1.065617,0.7291 0.130865,-0.0935 0.41129,-0.26173 0.280426,-0.16825 0.691716,-0.31781 0.411291,-0.16826 0.916057,-0.28043 0.504768,-0.13086 1.084308,-0.13086 1.12171,0 1.83212,0.33651 0.71041,0.31781 1.103,0.91605 0.41129,0.59824 0.54216,1.42082 0.14956,0.82259 0.14956,1.79473 v 5.45895 h -1.73864 v -5.08505 q 0,-0.85997 -0.0935,-1.47691 -0.0748,-0.61694 -0.31782,-1.02823 -0.22434,-0.41129 -0.63563,-0.59824 -0.3926,-0.20564 -1.02823,-0.20564 -0.878663,0 -1.458209,0.24303 -0.560851,0.22434 -0.766496,0.41129 0.14956,0.48607 0.22434,1.06562 0.07478,0.57955 0.07478,1.21518 v 5.45895 h -1.738637 v -5.08505 q 0,-0.85997 -0.09348,-1.47691 -0.09348,-0.61694 -0.336511,-1.02823 -0.22434,-0.41129 -0.635631,-0.59824 -0.392596,-0.20564 -1.009531,-0.20564 -0.261731,0 -0.560851,0.0187 -0.299121,0.0187 -0.579546,0.0561 -0.261731,0.0187 -0.486071,0.0561 -0.22434,0.0374 -0.29912,0.0561 v 8.20712 h -1.738638 z"
           inkscape:connector-curvature="0" />
        <path
           id="path915"
           style="font-style:normal;font-variant:normal;font-weight:normal;font-stretch:normal;font-size:18.69502831px;font-family:Ubuntu;-inkscape-font-specification:'Ubuntu, Normal';font-variant-ligatures:normal;font-variant-caps:normal;font-variant-numeric:normal;font-feature-settings:normal;text-align:center;writing-mode:lr-tb;text-anchor:middle;fill:#5aa02c;stroke-width:0.46737528"
           d="m 111.07531,227.38494 q 0.7665,0 1.30865,0.11217 0.56085,0.11217 0.78519,0.20565 l -0.31781,1.4956 q -0.22434,-0.11217 -0.63563,-0.20564 -0.41129,-0.11217 -1.00954,-0.11217 -1.21517,0 -1.70124,0.67302 -0.48607,0.65432 -0.48607,1.77602 v 0.84128 h 3.739 v 1.45821 h -3.739 v 8.26321 h -1.73864 V 231.2922 q 0,-1.8695 0.91605,-2.87903 0.91606,-1.02823 2.87904,-1.02823 z"
           inkscape:connector-curvature="0" />
        <path
           id="path917"
           style="font-style:normal;font-variant:normal;font-weight:normal;font-stretch:normal;font-size:18.69502831px;font-family:Ubuntu;-inkscape-font-specification:'Ubuntu, Normal';font-variant-ligatures:normal;font-variant-caps:normal;font-variant-numeric:normal;font-feature-settings:normal;text-align:center;writing-mode:lr-tb;text-anchor:middle;fill:#5aa02c;stroke-width:0.46737528"
           d="m 123.09096,237.03158 q 0,1.15909 -0.33651,2.09384 -0.33651,0.93475 -0.95345,1.60777 -0.59824,0.67302 -1.43952,1.04693 -0.84127,0.3552 -1.83211,0.3552 -0.99084,0 -1.83211,-0.3552 -0.84128,-0.37391 -1.45821,-1.04693 -0.59825,-0.67302 -0.93476,-1.60777 -0.33651,-0.93475 -0.33651,-2.09384 0,-1.1404 0.33651,-2.07515 0.33651,-0.95345 0.93476,-1.62647 0.61693,-0.67302 1.45821,-1.02822 0.84127,-0.3739 1.83211,-0.3739 0.99084,0 1.83211,0.3739 0.84128,0.3552 1.43952,1.02822 0.61694,0.67302 0.95345,1.62647 0.33651,0.93475 0.33651,2.07515 z m -1.81342,0 q 0,-1.64516 -0.7478,-2.59861 -0.72911,-0.97214 -2.00037,-0.97214 -1.27126,0 -2.01906,0.97214 -0.72911,0.95345 -0.72911,2.59861 0,1.64516 0.72911,2.6173 0.7478,0.95345 2.01906,0.95345 1.27126,0 2.00037,-0.95345 0.7478,-0.97214 0.7478,-2.6173 z"
           inkscape:connector-curvature="0" />
        <path
           id="path919"
           style="font-style:normal;font-variant:normal;font-weight:normal;font-stretch:normal;font-size:18.69502831px;font-family:Ubuntu;-inkscape-font-specification:'Ubuntu, Normal';font-variant-ligatures:normal;font-variant-caps:normal;font-variant-numeric:normal;font-feature-settings:normal;text-align:center;writing-mode:lr-tb;text-anchor:middle;fill:#5aa02c;stroke-width:0.46737528"
           d="m 129.12653,231.96523 q 0.22434,0 0.50477,0.0374 0.29912,0.0187 0.57954,0.0748 0.28043,0.0374 0.50477,0.0935 0.24303,0.0374 0.3552,0.0748 l -0.29912,1.5143 q -0.20564,-0.0748 -0.69171,-0.16826 -0.46738,-0.11217 -1.21518,-0.11217 -0.48607,0 -0.97214,0.11217 -0.46738,0.0935 -0.61694,0.13087 v 8.16973 h -1.73864 v -9.31013 q 0.61694,-0.22434 1.533,-0.41129 0.91605,-0.20564 2.05645,-0.20564 z"
           inkscape:connector-curvature="0" />
        <path
           id="path921"
           style="font-style:normal;font-variant:normal;font-weight:normal;font-stretch:normal;font-size:18.69502831px;font-family:Ubuntu;-inkscape-font-specification:'Ubuntu, Normal';font-variant-ligatures:normal;font-variant-caps:normal;font-variant-numeric:normal;font-feature-settings:normal;text-align:center;writing-mode:lr-tb;text-anchor:middle;fill:#5aa02c;stroke-width:0.46737528"
           d="m 134.39327,232.17087 h 3.68292 v 1.45821 h -3.68292 v 4.48681 q 0,0.72911 0.11217,1.21518 0.11217,0.46737 0.33651,0.7478 0.22434,0.26173 0.56085,0.3739 0.33651,0.11217 0.78519,0.11217 0.78519,0 1.25257,-0.16826 0.48607,-0.18695 0.67302,-0.26173 l 0.33651,1.43952 q -0.26173,0.13087 -0.91606,0.31782 -0.65433,0.20564 -1.4956,0.20564 -0.99084,0 -1.64516,-0.24303 -0.63564,-0.26173 -1.02823,-0.7665 -0.3926,-0.50477 -0.56085,-1.23387 -0.14956,-0.7478 -0.14956,-1.71995 v -8.67449 l 1.73864,-0.29912 z"
           inkscape:connector-curvature="0" />
        <path
           id="path923"
           style="font-style:normal;font-variant:normal;font-weight:normal;font-stretch:normal;font-size:18.69502831px;font-family:Ubuntu;-inkscape-font-specification:'Ubuntu, Normal';font-variant-ligatures:normal;font-variant-caps:normal;font-variant-numeric:normal;font-feature-settings:normal;text-align:center;writing-mode:lr-tb;text-anchor:middle;fill:#5aa02c;stroke-width:0.46737528"
           d="m 143.57895,240.63972 q 0.61694,0 1.08431,-0.0187 0.48607,-0.0374 0.80389,-0.11217 v -2.89773 q -0.18695,-0.0935 -0.61694,-0.14956 -0.41129,-0.0748 -1.00953,-0.0748 -0.39259,0 -0.84127,0.0561 -0.42999,0.0561 -0.80389,0.24303 -0.35521,0.16826 -0.59824,0.48607 -0.24304,0.29913 -0.24304,0.80389 0,0.93475 0.59824,1.30865 0.59824,0.35521 1.62647,0.35521 z m -0.14956,-8.71188 q 1.04692,0 1.75733,0.28042 0.72911,0.26173 1.1591,0.7665 0.44868,0.48607 0.63563,1.17778 0.18695,0.67302 0.18695,1.49561 v 6.07588 q -0.22434,0.0374 -0.63563,0.11217 -0.3926,0.0561 -0.89737,0.11217 -0.50476,0.0561 -1.103,0.0935 -0.57955,0.0561 -1.15909,0.0561 -0.82259,0 -1.5143,-0.16825 -0.69172,-0.16826 -1.19648,-0.52347 -0.50477,-0.3739 -0.78519,-0.97214 -0.28043,-0.59824 -0.28043,-1.43951 0,-0.80389 0.31782,-1.38344 0.33651,-0.57954 0.89736,-0.93475 0.56085,-0.3552 1.30865,-0.52346 0.7478,-0.16825 1.57038,-0.16825 0.26173,0 0.54216,0.0374 0.28042,0.0187 0.52346,0.0748 0.26173,0.0374 0.44868,0.0748 0.18695,0.0374 0.26173,0.0561 v -0.48607 q 0,-0.42998 -0.0935,-0.84128 -0.0935,-0.42998 -0.33651,-0.7478 -0.24303,-0.33651 -0.67302,-0.52346 -0.41129,-0.20564 -1.08431,-0.20564 -0.85997,0 -1.5143,0.13086 -0.63563,0.11217 -0.95344,0.24304 l -0.20565,-1.43952 q 0.33651,-0.14956 1.1217,-0.28042 0.78519,-0.14956 1.70125,-0.14956 z"
           inkscape:connector-curvature="0" />
        <path
           id="path925"
           style="font-style:normal;font-variant:normal;font-weight:normal;font-stretch:normal;font-size:18.69502831px;font-family:Ubuntu;-inkscape-font-specification:'Ubuntu, Normal';font-variant-ligatures:normal;font-variant-caps:normal;font-variant-numeric:normal;font-feature-settings:normal;text-align:center;writing-mode:lr-tb;text-anchor:middle;fill:#5aa02c;stroke-width:0.46737528"
           d="m 151.77643,232.60086 q 0.31782,-0.20565 0.95345,-0.42999 0.65432,-0.22434 1.4956,-0.22434 1.04692,0 1.85081,0.3739 0.82258,0.3739 1.38343,1.04692 0.56085,0.67302 0.84128,1.60778 0.29912,0.93475 0.29912,2.05645 0,1.17778 -0.35521,2.13123 -0.33651,0.93475 -0.97214,1.58908 -0.63563,0.65432 -1.53299,1.00953 -0.89736,0.35521 -2.01907,0.35521 -1.21517,0 -2.14992,-0.16826 -0.93475,-0.16825 -1.533,-0.33651 v -13.9278 l 1.73864,-0.29912 z m 0,7.77713 q 0.26173,0.0748 0.72911,0.14956 0.48607,0.0561 1.19648,0.0561 1.40213,0 2.2434,-0.91605 0.84128,-0.93475 0.84128,-2.636 0,-0.7478 -0.14956,-1.40213 -0.14956,-0.65432 -0.48607,-1.1217 -0.33651,-0.48607 -0.87867,-0.7478 -0.52346,-0.28043 -1.27126,-0.28043 -0.71041,0 -1.30865,0.24304 -0.59824,0.24303 -0.91606,0.50476 z"
           inkscape:connector-curvature="0" />
        <path
           id="path927"
           style="font-style:normal;font-variant:normal;font-weight:normal;font-stretch:normal;font-size:18.69502831px;font-family:Ubuntu;-inkscape-font-specification:'Ubuntu, Normal';font-variant-ligatures:normal;font-variant-caps:normal;font-variant-numeric:normal;font-feature-settings:normal;text-align:center;writing-mode:lr-tb;text-anchor:middle;fill:#5aa02c;stroke-width:0.46737528"
           d="m 163.98136,242.07924 q -1.60777,-0.0374 -2.28079,-0.69172 -0.67302,-0.65433 -0.67302,-2.03776 v -11.6657 l 1.73864,-0.29912 v 11.6844 q 0,0.42998 0.0748,0.71041 0.0748,0.28042 0.24303,0.44868 0.16826,0.16825 0.44868,0.26173 0.28043,0.0748 0.69172,0.13086 z"
           inkscape:connector-curvature="0" />
        <path
           id="path929"
           style="font-style:normal;font-variant:normal;font-weight:normal;font-stretch:normal;font-size:18.69502831px;font-family:Ubuntu;-inkscape-font-specification:'Ubuntu, Normal';font-variant-ligatures:normal;font-variant-caps:normal;font-variant-numeric:normal;font-feature-settings:normal;text-align:center;writing-mode:lr-tb;text-anchor:middle;fill:#5aa02c;stroke-width:0.46737528"
           d="m 165.6347,237.05027 q 0,-1.28995 0.3739,-2.2434 0.3739,-0.97214 0.99084,-1.60777 0.61693,-0.63563 1.42082,-0.95345 0.80388,-0.31781 1.64516,-0.31781 1.96298,0 3.0099,1.23387 1.04692,1.21517 1.04692,3.72031 0,0.11217 0,0.29912 0,0.16825 -0.0187,0.31781 h -6.65543 q 0.11217,1.5143 0.87866,2.29949 0.7665,0.78519 2.39297,0.78519 0.91605,0 1.53299,-0.14956 0.63563,-0.16825 0.95345,-0.31781 l 0.24303,1.45821 q -0.31781,0.16826 -1.1217,0.35521 -0.78519,0.18695 -1.79472,0.18695 -1.27127,0 -2.20602,-0.3739 -0.91605,-0.3926 -1.51429,-1.06562 -0.59824,-0.67302 -0.89737,-1.58908 -0.28042,-0.93475 -0.28042,-2.03776 z m 6.67412,-0.95344 q 0.0187,-1.17779 -0.59824,-1.92559 -0.59824,-0.7665 -1.66385,-0.7665 -0.59824,0 -1.06562,0.24304 -0.44868,0.22434 -0.7665,0.59824 -0.31781,0.3739 -0.50476,0.85997 -0.16826,0.48607 -0.22434,0.99084 z"
           inkscape:connector-curvature="0" />
      </g>
    </g>
  </g>
</svg>
